<svg xmlns="http://www.w3.org/2000/svg" width="6" height="10" viewBox="0 0 6 10">
  <defs>
    <style>
      .cls-1 {
        fill: #3a405b;
        fill-rule: evenodd;
      }
    </style>
  </defs>
  <path id="Next_Icon" data-name="Next Icon" class="cls-1" d="M1182.3,2468.17l3.83-3.82a1.1,1.1,0,0,1,1.54,0,1.086,1.086,0,0,1,0,1.53l-3.84,3.82a1.086,1.086,0,0,1-1.53,0A1.069,1.069,0,0,1,1182.3,2468.17Zm0-6.31,3.83,3.82a1.1,1.1,0,0,0,1.54,0,1.086,1.086,0,0,0,0-1.53l-3.84-3.82a1.086,1.086,0,0,0-1.53,0A1.069,1.069,0,0,0,1182.3,2461.86Z" transform="translate(-1182 -2460.03)"/>
</svg>
